Simulation
nRows=24
nColumns=15
endheader
time  TH_x TH_y TH_z SC_y  SC_z  SC_x  AC_y  AC_z  AC_x  GH_y  GH_z  GH_yy  EL_x  PS_y
8.6175  0.000000  0.000000  0.000000  -44.396680150249644  3.890547460734647  0.69608928247991  42.06287270104604  3.9705436048197833  -2.6496760058331073  110.06156509836038  5.587843514386692  -85.37355929193086  20.532145674959036  120.000000
8.67495  0.000000  0.000000  0.000000  -42.69630220735461  2.96102015671378  -0.48203625390379334  41.42109127980719  3.6618675992908036  -3.1249099390501187  93.95224967825772  5.766364261967951  -70.39625194652024  20.460742485041823  120.000000
8.7324  0.000000  0.000000  0.000000  -40.702824848326514  1.806202936755067  -1.99847240417701  40.757431556918334  3.4325492116209873  -3.4240590721932627  78.34601846165883  6.816686306126049  -55.926295866376684  20.54721567521381  120.000000
8.78985  0.000000  0.000000  0.000000  -38.600406503962525  0.54151733510506  -3.789083943860503  40.083378588718205  3.3497034062019257  -3.5102711950582557  67.44869371419325  8.795946058269426  -46.135961988994616  20.75828533846859  120.000000
8.8473  0.000000  0.000000  0.000000  -36.615742251484114  -0.6787224753260229  -5.751106502026539  39.39432119077614  3.4858541874242848  -3.3749090361769545  61.629651686814846  11.579226263235876  -41.389325556027345  21.023540022119203  120.000000
8.90475  0.000000  0.000000  0.000000  -34.865630855688416  -1.6470128666245096  -7.721081780605218  38.731507309067126  3.8745335250707176  -3.036295760080098  59.67186758273293  14.947372368526784  -40.46772846434366  21.296711981903325  120.000000
8.9622  0.000000  0.000000  0.000000  -33.37784042702438  -2.168356642582849  -9.448404903374266  38.142670954445336  4.5249923049210725  -2.5165239077597037  60.39290266801841  18.594174046386904  -42.26510129929166  21.540289180456945  120.000000
9.01965  0.000000  0.000000  0.000000  -32.154586510117966  -2.122302521849303  -10.71480470728917  37.68195117218611  5.507327297011693  -1.7745407666849384  62.90880338951468  22.197669346328016  -46.04733696785263  21.703364457373805  120.000000
9.0771  0.000000  0.000000  0.000000  -31.19972308021377  -1.3709115605762894  -11.4056809137543  37.42337997775256  6.8997334144082005  -0.6997391838835954  66.69869705193547  25.545506427434383  -51.411949206550716  21.771096128268567  120.000000
9.13455  0.000000  0.000000  0.000000  -30.588981750395288  0.18837867074161538  -11.41495894159924  37.37486388134227  8.680662468310315  0.8044201465128543  71.3969973955917  28.57841480271293  -58.042410653113805  21.779105768563717  120.000000
9.192  0.000000  0.000000  0.000000  -30.437252410051638  2.543164053621127  -10.605071228220842  37.51037693074627  10.706175886169676  2.780309880610434  76.61155971718  31.357577258625813  -65.56705825052579  21.752120539243474  120.000000
9.24945  0.000000  0.000000  0.000000  -30.84736082977447  5.576355543502927  -8.808249452620286  37.84224674311046  12.725342594657084  5.228263564344253  81.89014079793567  33.991859367658314  -73.52468028683755  21.68830748925096  120.000000
9.3069  0.000000  0.000000  0.000000  -31.89388697301257  9.122209950403414  -5.84504916611537  38.442041598031274  14.418737719150636  8.125654306899191  86.77070580912685  36.55794896550249  -81.40359215630569  21.569039411019805  120.000000
9.36435  0.000000  0.000000  0.000000  -33.63860123848506  12.972200663086106  -1.5995351650617853  39.431598311963945  15.49223815196411  11.412040828628614  90.72535994974848  39.02498320025963  -88.62810494792893  21.364949607041957  120.000000
9.421800000000001  0.000000  0.000000  0.000000  -36.16490430035426  16.834146682381977  3.926012421056009  40.835991874970674  15.746166992166408  14.973290915289432  93.27138871965359  41.16669464056684  -94.68802667713007  21.027770659924755  120.000000
9.47925  0.000000  0.000000  0.000000  -39.53563816305145  20.370733763260507  10.59176954966427  42.58886926241473  15.126045104100047  18.58385627448945  94.19719130408717  42.72431418633433  -99.2988034651441  20.54197231079178  120.000000
9.5367  0.000000  0.000000  0.000000  -43.690336198620074  23.23631539442055  18.120213980806657  44.64873962098238  13.782424967685332  21.908155947334585  93.58530386422893  43.6602876767383  -102.381621294426  19.978618326602565  120.000000
9.59415  0.000000  0.000000  0.000000  -48.36065366512425  25.150338618695795  26.118858461441054  46.92025374422709  11.993396268411763  24.624248000193926  91.78831800217948  44.1643870819295  -104.04484221345933  19.422312845439205  120.000000
9.6516  0.000000  0.000000  0.000000  -53.07436915661104  25.990166689773126  34.08929948310743  49.24059533527453  9.975669913338695  26.51853743096526  89.2642938786946  44.51123674850233  -104.50014927070065  18.927921896652993  120.000000
9.70905  0.000000  0.000000  0.000000  -57.20797160148476  25.859005372619926  41.46603934335795  51.45220160875628  7.842338368868534  27.53983572370607  86.39085191028704  44.906553876953176  -103.9693668516305  18.522088347160285  120.000000
9.7665  0.000000  0.000000  0.000000  -60.25796602477068  25.108357905786022  47.80149301059234  53.433396743986755  5.645443539206162  27.774618944354902  83.46823110639838  45.457330847000385  -102.67545980096013  18.20578963453068  120.000000
9.82395  0.000000  0.000000  0.000000  -61.98616966765821  24.205782215941873  52.826837574980374  55.18762150017109  3.381804490307383  27.340005354359086  80.5639857351451  46.20590990683464  -100.7517354158443  17.977730205663928  120.000000
9.8814  0.000000  0.000000  0.000000  -62.36497742636492  23.526605964986448  56.39428062682062  56.83603757080387  1.0629298661370705  26.337851589796173  77.5462302801534  47.109463535512575  -98.26128074819385  17.852330983190726  120.000000
9.93885  0.000000  0.000000  0.000000  -61.64214930697143  23.200453063991755  58.5433416474028  58.42659010753828  -1.3230127512892087  24.94925071643174  74.48165856707276  48.01579528964454  -95.4023665657297  17.81220894965052  120.000000
